<svg width="78" height="77" viewBox="0 0 78 77" fill="none" xmlns="http://www.w3.org/2000/svg">
<path d="M39.232 73.9999C21.71 62.9686 13.3944 62.9686 3 62.9686C5.07888 48.6577 18.2636 22.1229 38.935 22.1229C59.1299 22.1229 73.3851 48.9559 74.573 62.9686C65.0696 62.9686 56.457 62.9686 39.232 73.9999Z" stroke="black" stroke-width="5"/>
<path d="M9.5336 43.9513C5.87081 32.2243 4.48497 10.4953 7.20284 4C13.9884 5.72505 31.5555 21.8886 38.9801 21.5905C46.4047 21.2923 62.3967 6.91764 70.7573 4C73.9791 11.3898 71.5041 31.9261 68.0393 43.9513" stroke="black" stroke-width="5"/>
<path d="M19.9282 45.3344C24.0796 42.4134 32.8614 39.4581 34.7774 51.0046C29.0293 51.417 21.8442 48.4272 19.9282 45.3344Z" fill="black" stroke="black" stroke-width="5"/>
<path d="M57.9419 45.3344C53.7905 42.4134 45.0087 39.4581 43.0927 51.0046C48.8408 51.417 56.0259 48.4272 57.9419 45.3344Z" fill="black" stroke="black" stroke-width="5"/>
<path d="M38.9397 63.5649C32.5249 63.5649 31.1192 66.3476 31.2181 67.739L39.2367 71.913L46.9535 67.739C46.9535 66.2482 45.3546 63.5649 38.9397 63.5649Z" fill="black" stroke="black" stroke-width="5"/>
</svg>
